<?xml version="1.0" encoding="utf-8"?>
<!-- Generator: Adobe Illustrator 22.0.1, SVG Export Plug-In . SVG Version: 6.00 Build 0)  -->
<svg version="1.1" id="Layer_2" xmlns="http://www.w3.org/2000/svg" xmlns:xlink="http://www.w3.org/1999/xlink" x="0px" y="0px"
	 viewBox="0 0 600 600" style="enable-background:new 0 0 600 600;" xml:space="preserve">
<style type="text/css">
	.st0{fill:#57BF90;}
</style>
<path class="st0" d="M301,7.1C139.7,7.1,9,137.8,9,299S139.7,591,301,591c161.2,0,291.9-130.7,291.9-291.9S462.2,7.1,301,7.1z
	 M445.6,316.5c-1.7,87.2-58.6,128.3-150.8,133.1c-46.8,2.5-74.7,4.7-89.1,7c-2.5,0.4-4.4-0.3-4.9-3.4c-0.5-3.1,5.8-43,5.8-43
	c0-1.7,1.5-3,3.1-2.8c11.9,1.5,49.2,4.6,96.5,1.4c61.4-4.1,100.1-38.5,100.1-89.2c0-50.2-36.2-122.5-140.9-107.5
	c-1.6,0.2-2.8,1.6-2.9,3.2c-1,16.9-6.8,113,2.3,162.3c0.4,2.4-2.1,3.9-4.5,4.1c-13.8,1.4-26-0.9-39.8-3.2c-3.3-0.5-6-2.4-5.3-5.6
	c6.4-33.3,8.3-160.1,8.1-190.5c-0.2-28.8-3.7-64.8-5.4-70.6c-0.7-2.5-0.1-4.7,2.6-5.1c5.8-0.8,38.7,0,42.9,0.2
	c4.6,0.2,3.8,2.4,3.7,5.9c-0.1,3.5-2.5,57.1-2.5,57.1c0,1.4,1.2,2.5,2.6,2.3C369.4,158.2,447.3,229,445.6,316.5z"/>
</svg>
